<?xml version="1.0" encoding="UTF-8" standalone="no"?>
<!DOCTYPE svg PUBLIC "-//W3C//DTD SVG 1.1//EN"
 "http://www.w3.org/Graphics/SVG/1.1/DTD/svg11.dtd">
<!-- Generated by graphviz version 2.43.0 (0)
 -->
<!-- Title: pastafarianism Pages: 1 -->
<svg width="594pt" height="476pt"
 viewBox="0.00 0.00 593.80 476.00" xmlns="http://www.w3.org/2000/svg" xmlns:xlink="http://www.w3.org/1999/xlink">
<g id="graph0" class="graph" transform="scale(1 1) rotate(0) translate(4 472)">
<title>pastafarianism</title>
<polygon fill="white" stroke="transparent" points="-4,4 -4,-472 589.8,-472 589.8,4 -4,4"/>
<!-- Sequence -->
<g id="node1" class="node">
<title>Sequence</title>
<polygon fill="cyan" stroke="black" points="359.21,-442.54 359.21,-457.46 336.37,-468 304.07,-468 281.23,-457.46 281.23,-442.54 304.07,-432 336.37,-432 359.21,-442.54"/>
<text text-anchor="middle" x="320.22" y="-447.8" font-family="Times,serif" font-size="9.00">Sequence</text>
</g>
<!-- Fallback -->
<g id="node2" class="node">
<title>Fallback</title>
<polygon fill="cyan" stroke="black" points="247.21,-370.54 247.21,-385.46 226.72,-396 197.73,-396 177.23,-385.46 177.23,-370.54 197.73,-360 226.72,-360 247.21,-370.54"/>
<text text-anchor="middle" x="212.22" y="-375.8" font-family="Times,serif" font-size="9.00">Fallback</text>
</g>
<!-- Sequence&#45;&gt;Fallback -->
<g id="edge1" class="edge">
<title>Sequence&#45;&gt;Fallback</title>
<path fill="none" stroke="black" d="M298.11,-434.67C282.02,-424.24 260.07,-410.01 242.38,-398.55"/>
<polygon fill="black" stroke="black" points="243.87,-395.34 233.57,-392.84 240.06,-401.21 243.87,-395.34"/>
</g>
<!-- In gripper none? -->
<g id="node13" class="node">
<title>In gripper none?</title>
<ellipse fill="lightgray" stroke="black" cx="320.22" cy="-378" rx="54.7" ry="18"/>
<text text-anchor="middle" x="320.22" y="-375.8" font-family="Times,serif" font-size="9.00">In gripper none?</text>
</g>
<!-- Sequence&#45;&gt;In gripper none? -->
<g id="edge12" class="edge">
<title>Sequence&#45;&gt;In gripper none?</title>
<path fill="none" stroke="black" d="M320.22,-431.7C320.22,-423.98 320.22,-414.71 320.22,-406.11"/>
<polygon fill="black" stroke="black" points="323.72,-406.1 320.22,-396.1 316.72,-406.1 323.72,-406.1"/>
</g>
<!-- Fallback &#160;&#160; -->
<g id="node14" class="node">
<title>Fallback &#160;&#160;</title>
<polygon fill="cyan" stroke="black" points="473.96,-370.54 473.96,-385.46 450.1,-396 416.35,-396 392.48,-385.46 392.48,-370.54 416.35,-360 450.1,-360 473.96,-370.54"/>
<text text-anchor="middle" x="433.22" y="-375.8" font-family="Times,serif" font-size="9.00">Fallback &#160;&#160;</text>
</g>
<!-- Sequence&#45;&gt;Fallback &#160;&#160; -->
<g id="edge13" class="edge">
<title>Sequence&#45;&gt;Fallback &#160;&#160;</title>
<path fill="none" stroke="black" d="M343.09,-434.83C359.83,-424.47 382.75,-410.26 401.3,-398.78"/>
<polygon fill="black" stroke="black" points="403.34,-401.63 410,-393.38 399.66,-395.68 403.34,-401.63"/>
</g>
<!-- A roughly at p1 in marker_61? -->
<g id="node3" class="node">
<title>A roughly at p1 in marker_61?</title>
<ellipse fill="lightgray" stroke="black" cx="91.22" cy="-306" rx="91.44" ry="18"/>
<text text-anchor="middle" x="91.22" y="-303.8" font-family="Times,serif" font-size="9.00">A roughly at p1 in marker_61?</text>
</g>
<!-- Fallback&#45;&gt;A roughly at p1 in marker_61? -->
<g id="edge2" class="edge">
<title>Fallback&#45;&gt;A roughly at p1 in marker_61?</title>
<path fill="none" stroke="black" d="M189.75,-364C172.56,-354.05 148.49,-340.13 128.44,-328.53"/>
<polygon fill="black" stroke="black" points="129.96,-325.37 119.55,-323.39 126.45,-331.42 129.96,-325.37"/>
</g>
<!-- Sequence  -->
<g id="node4" class="node">
<title>Sequence </title>
<polygon fill="cyan" stroke="black" points="281.96,-298.54 281.96,-313.46 258.1,-324 224.35,-324 200.48,-313.46 200.48,-298.54 224.35,-288 258.1,-288 281.96,-298.54"/>
<text text-anchor="middle" x="241.22" y="-303.8" font-family="Times,serif" font-size="9.00">Sequence </text>
</g>
<!-- Fallback&#45;&gt;Sequence  -->
<g id="edge3" class="edge">
<title>Fallback&#45;&gt;Sequence </title>
<path fill="none" stroke="black" d="M219.39,-359.7C222.66,-351.81 226.6,-342.3 230.22,-333.55"/>
<polygon fill="black" stroke="black" points="233.54,-334.68 234.14,-324.1 227.07,-332 233.54,-334.68"/>
</g>
<!-- Fallback  -->
<g id="node5" class="node">
<title>Fallback </title>
<polygon fill="cyan" stroke="black" points="209.96,-226.54 209.96,-241.46 188.44,-252 158,-252 136.48,-241.46 136.48,-226.54 158,-216 188.44,-216 209.96,-226.54"/>
<text text-anchor="middle" x="173.22" y="-231.8" font-family="Times,serif" font-size="9.00">Fallback </text>
</g>
<!-- Sequence &#45;&gt;Fallback  -->
<g id="edge4" class="edge">
<title>Sequence &#45;&gt;Fallback </title>
<path fill="none" stroke="black" d="M224.41,-287.7C215.97,-279.01 205.61,-268.34 196.43,-258.89"/>
<polygon fill="black" stroke="black" points="198.85,-256.36 189.37,-251.62 193.83,-261.23 198.85,-256.36"/>
</g>
<!-- Place A at p1 in marker_61 -->
<g id="node12" class="node">
<title>Place A at p1 in marker_61</title>
<ellipse fill="lightgray" stroke="black" cx="310.22" cy="-234" rx="82.62" ry="18"/>
<text text-anchor="middle" x="310.22" y="-231.8" font-family="Times,serif" font-size="9.00">Place A at p1 in marker_61</text>
</g>
<!-- Sequence &#45;&gt;Place A at p1 in marker_61 -->
<g id="edge11" class="edge">
<title>Sequence &#45;&gt;Place A at p1 in marker_61</title>
<path fill="none" stroke="black" d="M258.28,-287.7C266.72,-279.14 277.05,-268.66 286.26,-259.3"/>
<polygon fill="black" stroke="black" points="288.83,-261.68 293.36,-252.1 283.85,-256.77 288.83,-261.68"/>
</g>
<!-- In gripper A? -->
<g id="node6" class="node">
<title>In gripper A?</title>
<ellipse fill="lightgray" stroke="black" cx="120.22" cy="-162" rx="45.72" ry="18"/>
<text text-anchor="middle" x="120.22" y="-159.8" font-family="Times,serif" font-size="9.00">In gripper A?</text>
</g>
<!-- Fallback &#45;&gt;In gripper A? -->
<g id="edge5" class="edge">
<title>Fallback &#45;&gt;In gripper A?</title>
<path fill="none" stroke="black" d="M160.12,-215.7C153.74,-207.27 145.95,-196.97 138.95,-187.73"/>
<polygon fill="black" stroke="black" points="141.63,-185.48 132.81,-179.62 136.05,-189.71 141.63,-185.48"/>
</g>
<!-- Sequence &#160; -->
<g id="node7" class="node">
<title>Sequence &#160;</title>
<polygon fill="cyan" stroke="black" points="268.71,-154.54 268.71,-169.46 243.82,-180 208.62,-180 183.73,-169.46 183.73,-154.54 208.62,-144 243.82,-144 268.71,-154.54"/>
<text text-anchor="middle" x="226.22" y="-159.8" font-family="Times,serif" font-size="9.00">Sequence &#160;</text>
</g>
<!-- Fallback &#45;&gt;Sequence &#160; -->
<g id="edge6" class="edge">
<title>Fallback &#45;&gt;Sequence &#160;</title>
<path fill="none" stroke="black" d="M186.32,-215.7C192.61,-207.39 200.27,-197.28 207.19,-188.14"/>
<polygon fill="black" stroke="black" points="210.02,-190.19 213.27,-180.1 204.44,-185.96 210.02,-190.19"/>
</g>
<!-- Fallback &#160; -->
<g id="node8" class="node">
<title>Fallback &#160;</title>
<polygon fill="cyan" stroke="black" points="223.21,-82.54 223.21,-97.46 200.37,-108 168.07,-108 145.23,-97.46 145.23,-82.54 168.07,-72 200.37,-72 223.21,-82.54"/>
<text text-anchor="middle" x="184.22" y="-87.8" font-family="Times,serif" font-size="9.00">Fallback &#160;</text>
</g>
<!-- Sequence &#160;&#45;&gt;Fallback &#160; -->
<g id="edge7" class="edge">
<title>Sequence &#160;&#45;&gt;Fallback &#160;</title>
<path fill="none" stroke="black" d="M215.84,-143.7C210.96,-135.56 205.03,-125.69 199.64,-116.7"/>
<polygon fill="black" stroke="black" points="202.63,-114.88 194.48,-108.1 196.63,-118.48 202.63,-114.88"/>
</g>
<!-- Pick A -->
<g id="node11" class="node">
<title>Pick A</title>
<ellipse fill="lightgray" stroke="black" cx="268.22" cy="-90" rx="27" ry="18"/>
<text text-anchor="middle" x="268.22" y="-87.8" font-family="Times,serif" font-size="9.00">Pick A</text>
</g>
<!-- Sequence &#160;&#45;&gt;Pick A -->
<g id="edge10" class="edge">
<title>Sequence &#160;&#45;&gt;Pick A</title>
<path fill="none" stroke="black" d="M236.6,-143.7C241.63,-135.32 247.76,-125.1 253.28,-115.9"/>
<polygon fill="black" stroke="black" points="256.39,-117.52 258.53,-107.14 250.39,-113.92 256.39,-117.52"/>
</g>
<!-- Gripper open? -->
<g id="node9" class="node">
<title>Gripper open?</title>
<ellipse fill="lightgray" stroke="black" cx="124.22" cy="-18" rx="47.84" ry="18"/>
<text text-anchor="middle" x="124.22" y="-15.8" font-family="Times,serif" font-size="9.00">Gripper open?</text>
</g>
<!-- Fallback &#160;&#45;&gt;Gripper open? -->
<g id="edge8" class="edge">
<title>Fallback &#160;&#45;&gt;Gripper open?</title>
<path fill="none" stroke="black" d="M169.39,-71.7C162.09,-63.18 153.16,-52.76 145.18,-43.45"/>
<polygon fill="black" stroke="black" points="147.63,-40.94 138.47,-35.62 142.32,-45.49 147.63,-40.94"/>
</g>
<!-- Set gripper open -->
<g id="node10" class="node">
<title>Set gripper open</title>
<ellipse fill="lightgray" stroke="black" cx="245.22" cy="-18" rx="54.7" ry="18"/>
<text text-anchor="middle" x="245.22" y="-15.8" font-family="Times,serif" font-size="9.00">Set gripper open</text>
</g>
<!-- Fallback &#160;&#45;&gt;Set gripper open -->
<g id="edge9" class="edge">
<title>Fallback &#160;&#45;&gt;Set gripper open</title>
<path fill="none" stroke="black" d="M199.3,-71.7C206.8,-63.09 215.98,-52.55 224.16,-43.17"/>
<polygon fill="black" stroke="black" points="226.81,-45.46 230.74,-35.62 221.53,-40.86 226.81,-45.46"/>
</g>
<!-- Gripper open?  -->
<g id="node15" class="node">
<title>Gripper open? </title>
<ellipse fill="lightgray" stroke="black" cx="405.22" cy="-306" rx="49.8" ry="18"/>
<text text-anchor="middle" x="405.22" y="-303.8" font-family="Times,serif" font-size="9.00">Gripper open? </text>
</g>
<!-- Fallback &#160;&#160;&#45;&gt;Gripper open?  -->
<g id="edge14" class="edge">
<title>Fallback &#160;&#160;&#45;&gt;Gripper open? </title>
<path fill="none" stroke="black" d="M426.3,-359.7C423.15,-351.81 419.34,-342.3 415.84,-333.55"/>
<polygon fill="black" stroke="black" points="419.03,-332.09 412.06,-324.1 412.53,-334.69 419.03,-332.09"/>
</g>
<!-- Set gripper open  -->
<g id="node16" class="node">
<title>Set gripper open </title>
<ellipse fill="lightgray" stroke="black" cx="529.22" cy="-306" rx="56.66" ry="18"/>
<text text-anchor="middle" x="529.22" y="-303.8" font-family="Times,serif" font-size="9.00">Set gripper open </text>
</g>
<!-- Fallback &#160;&#160;&#45;&gt;Set gripper open  -->
<g id="edge15" class="edge">
<title>Fallback &#160;&#160;&#45;&gt;Set gripper open </title>
<path fill="none" stroke="black" d="M454.53,-361.46C467.73,-351.84 484.89,-339.32 499.43,-328.72"/>
<polygon fill="black" stroke="black" points="501.63,-331.45 507.64,-322.73 497.5,-325.8 501.63,-331.45"/>
</g>
</g>
</svg>
