<?xml version="1.0" encoding="UTF-8" standalone="no"?>
<!DOCTYPE svg PUBLIC "-//W3C//DTD SVG 1.1//EN"
 "http://www.w3.org/Graphics/SVG/1.1/DTD/svg11.dtd">
<!-- Generated by graphviz version 2.43.0 (0)
 -->
<!-- Title: BT Pages: 1 -->
<svg width="751pt" height="469pt"
 viewBox="0.00 0.00 750.94 469.00" xmlns="http://www.w3.org/2000/svg" xmlns:xlink="http://www.w3.org/1999/xlink">
<g id="graph0" class="graph" transform="scale(1 1) rotate(0) translate(4 465)">
<title>BT</title>
<polygon fill="white" stroke="transparent" points="-4,4 -4,-465 746.94,-465 746.94,4 -4,4"/>
<!-- n1 -->
<g id="node1" class="node">
<title>n1</title>
<polygon fill="none" stroke="black" points="436.94,-461 407.94,-461 407.94,-432 436.94,-432 436.94,-461"/>
<text text-anchor="middle" x="422.44" y="-442.8" font-family="Times,serif" font-size="14.00">→</text>
</g>
<!-- n2 -->
<g id="node2" class="node">
<title>n2</title>
<polygon fill="none" stroke="black" points="316.94,-392.5 287.94,-392.5 287.94,-363.5 316.94,-363.5 316.94,-392.5"/>
<text text-anchor="middle" x="302.44" y="-374.3" font-family="Times,serif" font-size="14.00">?</text>
</g>
<!-- n1&#45;&gt;n2 -->
<g id="edge11" class="edge">
<title>n1&#45;&gt;n2</title>
<path fill="none" stroke="black" d="M407.9,-439C390.15,-430.88 359.21,-416.1 326.18,-396.03"/>
<polygon fill="black" stroke="black" points="327.63,-392.81 317.28,-390.52 323.94,-398.76 327.63,-392.81"/>
</g>
<!-- n13 -->
<g id="node13" class="node">
<title>n13</title>
<ellipse fill="none" stroke="black" cx="422.44" cy="-378" rx="87.99" ry="18"/>
<text text-anchor="middle" x="422.44" y="-374.3" font-family="Times,serif" font-size="14.00">In gripper none?</text>
</g>
<!-- n1&#45;&gt;n13 -->
<g id="edge12" class="edge">
<title>n1&#45;&gt;n13</title>
<path fill="none" stroke="black" d="M422.44,-431.72C422.44,-424.36 422.44,-415.04 422.44,-406.29"/>
<polygon fill="black" stroke="black" points="425.94,-406.07 422.44,-396.07 418.94,-406.07 425.94,-406.07"/>
</g>
<!-- n14 -->
<g id="node14" class="node">
<title>n14</title>
<polygon fill="none" stroke="black" points="556.94,-392.5 527.94,-392.5 527.94,-363.5 556.94,-363.5 556.94,-392.5"/>
<text text-anchor="middle" x="542.44" y="-374.3" font-family="Times,serif" font-size="14.00">?</text>
</g>
<!-- n1&#45;&gt;n14 -->
<g id="edge15" class="edge">
<title>n1&#45;&gt;n14</title>
<path fill="none" stroke="black" d="M436.97,-439C454.72,-430.88 485.67,-416.1 518.69,-396.03"/>
<polygon fill="black" stroke="black" points="520.93,-398.76 527.59,-390.52 517.25,-392.81 520.93,-398.76"/>
</g>
<!-- n3 -->
<g id="node3" class="node">
<title>n3</title>
<ellipse fill="none" stroke="black" cx="151.44" cy="-306" rx="151.37" ry="18"/>
<text text-anchor="middle" x="151.44" y="-302.3" font-family="Times,serif" font-size="14.00">A roughly at p1 in marker_61?</text>
</g>
<!-- n2&#45;&gt;n3 -->
<g id="edge1" class="edge">
<title>n2&#45;&gt;n3</title>
<path fill="none" stroke="black" d="M287.68,-370.16C266.77,-360.46 227.59,-342.3 196.6,-327.94"/>
<polygon fill="black" stroke="black" points="197.82,-324.64 187.27,-323.61 194.87,-330.99 197.82,-324.64"/>
</g>
<!-- n4 -->
<g id="node4" class="node">
<title>n4</title>
<polygon fill="none" stroke="black" points="349.94,-320.5 320.94,-320.5 320.94,-291.5 349.94,-291.5 349.94,-320.5"/>
<text text-anchor="middle" x="335.44" y="-302.3" font-family="Times,serif" font-size="14.00">→</text>
</g>
<!-- n2&#45;&gt;n4 -->
<g id="edge10" class="edge">
<title>n2&#45;&gt;n4</title>
<path fill="none" stroke="black" d="M308.96,-363.17C313.43,-353.68 319.47,-340.86 324.66,-329.86"/>
<polygon fill="black" stroke="black" points="327.83,-331.34 328.93,-320.8 321.5,-328.35 327.83,-331.34"/>
</g>
<!-- n5 -->
<g id="node5" class="node">
<title>n5</title>
<polygon fill="none" stroke="black" points="281.94,-248.5 252.94,-248.5 252.94,-219.5 281.94,-219.5 281.94,-248.5"/>
<text text-anchor="middle" x="267.44" y="-230.3" font-family="Times,serif" font-size="14.00">?</text>
</g>
<!-- n4&#45;&gt;n5 -->
<g id="edge8" class="edge">
<title>n4&#45;&gt;n5</title>
<path fill="none" stroke="black" d="M322,-291.17C312.32,-281.2 299.06,-267.56 288.04,-256.21"/>
<polygon fill="black" stroke="black" points="290.32,-253.54 280.84,-248.8 285.3,-258.41 290.32,-253.54"/>
</g>
<!-- n12 -->
<g id="node12" class="node">
<title>n12</title>
<polygon fill="none" stroke="black" points="508.94,-252 299.94,-252 299.94,-216 508.94,-216 508.94,-252"/>
<text text-anchor="middle" x="404.44" y="-230.3" font-family="Times,serif" font-size="14.00">Place A at p1 in marker_61</text>
</g>
<!-- n4&#45;&gt;n12 -->
<g id="edge9" class="edge">
<title>n4&#45;&gt;n12</title>
<path fill="none" stroke="black" d="M349.07,-291.17C357.98,-282.13 369.87,-270.07 380.35,-259.44"/>
<polygon fill="black" stroke="black" points="383.13,-261.6 387.66,-252.02 378.15,-256.68 383.13,-261.6"/>
</g>
<!-- n6 -->
<g id="node6" class="node">
<title>n6</title>
<ellipse fill="none" stroke="black" cx="215.44" cy="-162" rx="71.49" ry="18"/>
<text text-anchor="middle" x="215.44" y="-158.3" font-family="Times,serif" font-size="14.00">In gripper A?</text>
</g>
<!-- n5&#45;&gt;n6 -->
<g id="edge2" class="edge">
<title>n5&#45;&gt;n6</title>
<path fill="none" stroke="black" d="M257.16,-219.17C250.53,-210.24 241.71,-198.37 233.89,-187.84"/>
<polygon fill="black" stroke="black" points="236.66,-185.7 227.89,-179.76 231.04,-189.88 236.66,-185.7"/>
</g>
<!-- n7 -->
<g id="node7" class="node">
<title>n7</title>
<polygon fill="none" stroke="black" points="333.94,-176.5 304.94,-176.5 304.94,-147.5 333.94,-147.5 333.94,-176.5"/>
<text text-anchor="middle" x="319.44" y="-158.3" font-family="Times,serif" font-size="14.00">→</text>
</g>
<!-- n5&#45;&gt;n7 -->
<g id="edge7" class="edge">
<title>n5&#45;&gt;n7</title>
<path fill="none" stroke="black" d="M277.71,-219.17C284.97,-209.39 294.86,-196.08 303.19,-184.87"/>
<polygon fill="black" stroke="black" points="306.03,-186.92 309.18,-176.8 300.41,-182.74 306.03,-186.92"/>
</g>
<!-- n8 -->
<g id="node8" class="node">
<title>n8</title>
<polygon fill="none" stroke="black" points="301.94,-104.5 272.94,-104.5 272.94,-75.5 301.94,-75.5 301.94,-104.5"/>
<text text-anchor="middle" x="287.44" y="-86.3" font-family="Times,serif" font-size="14.00">?</text>
</g>
<!-- n7&#45;&gt;n8 -->
<g id="edge5" class="edge">
<title>n7&#45;&gt;n8</title>
<path fill="none" stroke="black" d="M313.11,-147.17C308.82,-137.77 303.03,-125.12 298.04,-114.2"/>
<polygon fill="black" stroke="black" points="301.09,-112.44 293.75,-104.8 294.72,-115.35 301.09,-112.44"/>
</g>
<!-- n11 -->
<g id="node11" class="node">
<title>n11</title>
<polygon fill="none" stroke="black" points="380.94,-108 319.94,-108 319.94,-72 380.94,-72 380.94,-108"/>
<text text-anchor="middle" x="350.44" y="-86.3" font-family="Times,serif" font-size="14.00">Pick A</text>
</g>
<!-- n7&#45;&gt;n11 -->
<g id="edge6" class="edge">
<title>n7&#45;&gt;n11</title>
<path fill="none" stroke="black" d="M325.56,-147.17C329.33,-138.66 334.29,-127.46 338.78,-117.31"/>
<polygon fill="black" stroke="black" points="342.05,-118.58 342.9,-108.02 335.65,-115.75 342.05,-118.58"/>
</g>
<!-- n9 -->
<g id="node9" class="node">
<title>n9</title>
<ellipse fill="none" stroke="black" cx="205.44" cy="-18" rx="77.19" ry="18"/>
<text text-anchor="middle" x="205.44" y="-14.3" font-family="Times,serif" font-size="14.00">Gripper open?</text>
</g>
<!-- n8&#45;&gt;n9 -->
<g id="edge3" class="edge">
<title>n8&#45;&gt;n9</title>
<path fill="none" stroke="black" d="M272.78,-76.49C261.71,-67.04 246.21,-53.81 232.87,-42.42"/>
<polygon fill="black" stroke="black" points="234.78,-39.45 224.9,-35.62 230.24,-44.77 234.78,-39.45"/>
</g>
<!-- n10 -->
<g id="node10" class="node">
<title>n10</title>
<polygon fill="none" stroke="black" points="437.94,-36 300.94,-36 300.94,0 437.94,0 437.94,-36"/>
<text text-anchor="middle" x="369.44" y="-14.3" font-family="Times,serif" font-size="14.00">Set gripper open</text>
</g>
<!-- n8&#45;&gt;n10 -->
<g id="edge4" class="edge">
<title>n8&#45;&gt;n10</title>
<path fill="none" stroke="black" d="M302.1,-76.49C313.01,-67.17 328.23,-54.17 341.45,-42.89"/>
<polygon fill="black" stroke="black" points="344.03,-45.29 349.36,-36.14 339.48,-39.97 344.03,-45.29"/>
</g>
<!-- n15 -->
<g id="node15" class="node">
<title>n15</title>
<ellipse fill="none" stroke="black" cx="510.44" cy="-306" rx="77.19" ry="18"/>
<text text-anchor="middle" x="510.44" y="-302.3" font-family="Times,serif" font-size="14.00">Gripper open?</text>
</g>
<!-- n14&#45;&gt;n15 -->
<g id="edge13" class="edge">
<title>n14&#45;&gt;n15</title>
<path fill="none" stroke="black" d="M536.11,-363.17C532.22,-354.66 527.11,-343.46 522.46,-333.31"/>
<polygon fill="black" stroke="black" points="525.56,-331.66 518.22,-324.02 519.19,-334.57 525.56,-331.66"/>
</g>
<!-- n16 -->
<g id="node16" class="node">
<title>n16</title>
<polygon fill="none" stroke="black" points="742.94,-324 605.94,-324 605.94,-288 742.94,-288 742.94,-324"/>
<text text-anchor="middle" x="674.44" y="-302.3" font-family="Times,serif" font-size="14.00">Set gripper open</text>
</g>
<!-- n14&#45;&gt;n16 -->
<g id="edge14" class="edge">
<title>n14&#45;&gt;n16</title>
<path fill="none" stroke="black" d="M557.07,-369.24C575.32,-359.56 607.29,-342.61 633.26,-328.83"/>
<polygon fill="black" stroke="black" points="634.97,-331.89 642.17,-324.11 631.69,-325.71 634.97,-331.89"/>
</g>
</g>
</svg>
