<?xml version="1.0" encoding="UTF-8" standalone="no"?>
<!DOCTYPE svg PUBLIC "-//W3C//DTD SVG 1.1//EN"
 "http://www.w3.org/Graphics/SVG/1.1/DTD/svg11.dtd">
<!-- Generated by graphviz version 2.43.0 (0)
 -->
<!-- Title: pastafarianism Pages: 1 -->
<svg width="374pt" height="116pt"
 viewBox="0.00 0.00 373.78 116.00" xmlns="http://www.w3.org/2000/svg" xmlns:xlink="http://www.w3.org/1999/xlink">
<g id="graph0" class="graph" transform="scale(1 1) rotate(0) translate(4 112)">
<title>pastafarianism</title>
<polygon fill="white" stroke="transparent" points="-4,4 -4,-112 369.78,-112 369.78,4 -4,4"/>
<!-- Fallback -->
<g id="node1" class="node">
<title>Fallback</title>
<polygon fill="cyan" stroke="black" points="222.21,-82.54 222.21,-97.46 201.72,-108 172.73,-108 152.23,-97.46 152.23,-82.54 172.73,-72 201.72,-72 222.21,-82.54"/>
<text text-anchor="middle" x="187.22" y="-87.8" font-family="Times,serif" font-size="9.00">Fallback</text>
</g>
<!-- A roughly at p1 in marker_61? -->
<g id="node2" class="node">
<title>A roughly at p1 in marker_61?</title>
<ellipse fill="lightgray" stroke="black" cx="91.22" cy="-18" rx="91.44" ry="18"/>
<text text-anchor="middle" x="91.22" y="-15.8" font-family="Times,serif" font-size="9.00">A roughly at p1 in marker_61?</text>
</g>
<!-- Fallback&#45;&gt;A roughly at p1 in marker_61? -->
<g id="edge1" class="edge">
<title>Fallback&#45;&gt;A roughly at p1 in marker_61?</title>
<path fill="none" stroke="black" d="M167.33,-74.5C154.29,-64.99 136.98,-52.37 122.16,-41.56"/>
<polygon fill="black" stroke="black" points="123.92,-38.51 113.78,-35.45 119.8,-44.17 123.92,-38.51"/>
</g>
<!-- Place A at p1 in marker_61 -->
<g id="node3" class="node">
<title>Place A at p1 in marker_61</title>
<ellipse fill="lightgray" stroke="black" cx="283.22" cy="-18" rx="82.62" ry="18"/>
<text text-anchor="middle" x="283.22" y="-15.8" font-family="Times,serif" font-size="9.00">Place A at p1 in marker_61</text>
</g>
<!-- Fallback&#45;&gt;Place A at p1 in marker_61 -->
<g id="edge2" class="edge">
<title>Fallback&#45;&gt;Place A at p1 in marker_61</title>
<path fill="none" stroke="black" d="M207.11,-74.5C220.15,-64.99 237.46,-52.37 252.28,-41.56"/>
<polygon fill="black" stroke="black" points="254.65,-44.17 260.66,-35.45 250.52,-38.51 254.65,-44.17"/>
</g>
</g>
</svg>
