<?xml version="1.0" encoding="UTF-8" standalone="no"?>
<!DOCTYPE svg PUBLIC "-//W3C//DTD SVG 1.1//EN"
 "http://www.w3.org/Graphics/SVG/1.1/DTD/svg11.dtd">
<!-- Generated by graphviz version 2.43.0 (0)
 -->
<!-- Title: BT Pages: 1 -->
<svg width="538pt" height="109pt"
 viewBox="0.00 0.00 537.94 109.00" xmlns="http://www.w3.org/2000/svg" xmlns:xlink="http://www.w3.org/1999/xlink">
<g id="graph0" class="graph" transform="scale(1 1) rotate(0) translate(4 105)">
<title>BT</title>
<polygon fill="white" stroke="transparent" points="-4,4 -4,-105 533.94,-105 533.94,4 -4,4"/>
<!-- n1 -->
<g id="node1" class="node">
<title>n1</title>
<polygon fill="none" stroke="black" points="302.94,-101 273.94,-101 273.94,-72 302.94,-72 302.94,-101"/>
<text text-anchor="middle" x="288.44" y="-82.8" font-family="Times,serif" font-size="14.00">?</text>
</g>
<!-- n2 -->
<g id="node2" class="node">
<title>n2</title>
<ellipse fill="none" stroke="black" cx="151.44" cy="-18" rx="151.37" ry="18"/>
<text text-anchor="middle" x="151.44" y="-14.3" font-family="Times,serif" font-size="14.00">A roughly at p1 in marker_61?</text>
</g>
<!-- n1&#45;&gt;n2 -->
<g id="edge1" class="edge">
<title>n1&#45;&gt;n2</title>
<path fill="none" stroke="black" d="M273.78,-78.38C255.13,-69.33 222.1,-53.3 195.06,-40.17"/>
<polygon fill="black" stroke="black" points="196.3,-36.89 185.78,-35.67 193.24,-43.18 196.3,-36.89"/>
</g>
<!-- n3 -->
<g id="node3" class="node">
<title>n3</title>
<polygon fill="none" stroke="black" points="529.94,-36 320.94,-36 320.94,0 529.94,0 529.94,-36"/>
<text text-anchor="middle" x="425.44" y="-14.3" font-family="Times,serif" font-size="14.00">Place A at p1 in marker_61</text>
</g>
<!-- n1&#45;&gt;n3 -->
<g id="edge2" class="edge">
<title>n1&#45;&gt;n3</title>
<path fill="none" stroke="black" d="M303.1,-78.38C321.56,-69.42 354.12,-53.62 381.01,-40.57"/>
<polygon fill="black" stroke="black" points="382.78,-43.59 390.25,-36.08 379.73,-37.3 382.78,-43.59"/>
</g>
</g>
</svg>
